<?xml version="1.0" encoding="utf-8"?>
<!-- Generator: Adobe Illustrator 16.0.0, SVG Export Plug-In . SVG Version: 6.00 Build 0)  -->
<!DOCTYPE svg PUBLIC "-//W3C//DTD SVG 1.1//EN" "http://www.w3.org/Graphics/SVG/1.1/DTD/svg11.dtd">
<svg version="1.1" id="Layer_1" xmlns="http://www.w3.org/2000/svg" xmlns:xlink="http://www.w3.org/1999/xlink" x="0px" y="0px"
	 width="136px" height="136px" viewBox="0 0 136 136" enable-background="new 0 0 136 136" xml:space="preserve">
<g>
	<polygon fill="#2D1E46" points="22.236,96.553 22.236,100.776 32.225,100.492 32.225,100.712 21.575,114.798 21.575,118.706 
		38.244,118.706 38.244,114.515 27.656,114.736 27.656,114.547 38.086,100.366 38.086,96.553 	"/>
	<g>
		<path fill="#2D1E46" d="M47.121,99.832h-3.724c-0.494,0-0.895-0.4-0.895-0.896v-2.383h3.723c0.494,0,0.896,0.399,0.896,0.896
			V99.832z M47.254,118.741H42.37v-17.032h4.884V118.741z"/>
		<path fill="#2D1E46" d="M55.338,123.938h-3.34v-23.761h2.124c0.591,0,1.113,0.388,1.283,0.953l0.28,0.937h0.157
			c2.185-1.532,4.186-2.3,6.004-2.3c1.817,0,3.297,0.771,4.443,2.316c1.145,1.543,1.717,3.893,1.717,7.043
			c0,4.392-1.156,7.333-3.467,8.824c-1.24,0.776-2.68,1.166-4.317,1.166c-0.987,0-2.102-0.095-3.34-0.284v3.56
			C56.883,123.246,56.19,123.938,55.338,123.938 M62.334,104.588c-0.273-0.399-0.693-0.599-1.26-0.599
			c-1.114,0-2.301,0.306-3.56,0.914l-0.631,0.284v9.517c1.009,0.293,1.996,0.441,2.962,0.441s1.618-0.137,1.955-0.41
			c0.757-0.482,1.134-2.395,1.134-5.736C62.933,106.648,62.734,105.176,62.334,104.588"/>
		<path fill="#2D1E46" d="M74.891,123.938h-3.339v-23.761h2.123c0.592,0,1.113,0.388,1.283,0.953l0.281,0.937h0.156
			c2.186-1.532,4.187-2.3,6.004-2.3c1.816,0,3.297,0.771,4.443,2.316c1.145,1.543,1.717,3.893,1.717,7.043
			c0,4.392-1.154,7.333-3.466,8.824c-1.239,0.776-2.679,1.166-4.317,1.166c-0.988,0-2.102-0.095-3.341-0.284v3.56
			C76.436,123.246,75.745,123.938,74.891,123.938 M81.888,104.588c-0.273-0.399-0.693-0.599-1.26-0.599
			c-1.115,0-2.301,0.306-3.561,0.914l-0.632,0.284v9.517c1.008,0.293,1.996,0.441,2.963,0.441c0.966,0,1.618-0.137,1.953-0.41
			c0.757-0.482,1.134-2.395,1.134-5.736C82.486,106.648,82.289,105.176,81.888,104.588"/>
		<path fill="#2D1E46" d="M96.296,99.832h-3.723c-0.494,0-0.895-0.4-0.895-0.896v-2.383h3.723c0.495,0,0.895,0.399,0.895,0.896
			V99.832z M96.43,118.741h-4.885v-17.032h4.885V118.741z"/>
		<path fill="#2D1E46" d="M108.576,119.117c-5.715,0-8.572-3.226-8.572-9.676c0-6.449,2.836-9.674,8.51-9.674
			c2.541,0,4.453,0.678,5.734,2.033c1.281,1.354,1.923,3.598,1.923,6.728v2.615h-11.093c0,1.765,0.326,2.931,0.977,3.499
			c0.441,0.398,1.062,0.599,1.859,0.599c1.471,0,3.341-0.336,5.609-1.009l1.104-0.348l1.197,3.529
			c-0.945,0.442-2.121,0.837-3.529,1.183C110.886,118.943,109.648,119.117,108.576,119.117 M110.625,104.304
			c-0.379-0.461-1.135-0.692-2.27-0.692s-1.943,0.272-2.426,0.819c-0.484,0.547-0.757,1.607-0.82,3.182l6.082-0.126
			C111.149,105.829,110.96,104.767,110.625,104.304"/>
	</g>
</g>
<rect x="0.5" y="0.5" opacity="0" fill="#FFFFFF" width="136" height="136"/>
<g>
	<linearGradient id="SVGID_1_" gradientUnits="userSpaceOnUse" x1="35.1196" y1="24.856" x2="83.9536" y2="24.856">
		<stop  offset="0" style="stop-color:#824BF5"/>
		<stop  offset="0.0022" style="stop-color:#824BF5"/>
		<stop  offset="1" style="stop-color:#462832"/>
	</linearGradient>
	<path fill="url(#SVGID_1_)" d="M66.041,14.061c-11.365,0.048-20.616,1.779-23.492,2.947c-3.893,1.489-6.32,3.731-7.195,7.657
		c-0.559,2.664-0.206,3.813,2.05,4.664c1.109,0.325,14.043,3.33,27.003,6.326c10.153-5.76,20.25-12,19.507-17.164
		c-0.185-1.292-2.106-3.757-6.519-4.137c0.42,0.022,0.828,0.047,1.238,0.073c-0.317-0.033-0.665-0.063-1.055-0.089
		c-2.437-0.143-5.988-0.278-10.512-0.278C66.73,14.058,66.388,14.058,66.041,14.061"/>
	<linearGradient id="SVGID_2_" gradientUnits="userSpaceOnUse" x1="68.8242" y1="78.6167" x2="68.8242" y2="14.086">
		<stop  offset="0" style="stop-color:#AF37C8"/>
		<stop  offset="0.04" style="stop-color:#AF37C8"/>
		<stop  offset="0.5" style="stop-color:#FF414B"/>
		<stop  offset="0.96" style="stop-color:#FFDC00"/>
		<stop  offset="1" style="stop-color:#FFDC00"/>
	</linearGradient>
	<path fill="url(#SVGID_2_)" d="M83.915,18.49c1.155,8.039-23.946,18.682-34.653,26.07c-7.756,5.35-14.429,11.13-14.429,20.092
		v0.016c0.002,4.949,0.951,16.21,27.674,16.307c-5.176-0.799-7.822-4.084-7.292-7.779c0.536-3.737,2.24-6.524,28.425-22.464
		c23.218-13.515,29.995-34.605-6.244-36.378C81.808,14.732,83.73,17.198,83.915,18.49"/>
	<linearGradient id="SVGID_3_" gradientUnits="userSpaceOnUse" x1="55.1479" y1="70.0073" x2="102.814" y2="70.0073">
		<stop  offset="0" style="stop-color:#462832"/>
		<stop  offset="0.9989" style="stop-color:#824BF5"/>
		<stop  offset="1" style="stop-color:#824BF5"/>
	</linearGradient>
	<path fill="url(#SVGID_3_)" d="M55.215,73.195c-0.53,3.693,2.113,6.976,7.283,7.777c2.446,0.106,5.602,0.184,9.396,0.168
		c11.365-0.049,20.615-1.779,23.493-2.947c3.892-1.488,6.319-3.73,7.192-7.657c0.561-2.663,0.207-3.813-2.049-4.665
		c-1.125-0.329-16.725-3.948-29.917-6.998C56.817,67.83,55.644,70.209,55.215,73.195"/>
</g>
</svg>
